<svg height='100px' width='100px'  fill="#B30000" xmlns="http://www.w3.org/2000/svg" xmlns:xlink="http://www.w3.org/1999/xlink" version="1.1" x="0px" y="0px" viewBox="0 0 98 98" enable-background="new 0 0 98 98" xml:space="preserve"><g><path d="M87.8525,29.6938c0-1.9297-1.5703-3.5-3.5-3.5s-3.5,1.5703-3.5,3.5s1.5703,3.5,3.5,3.5S87.8525,31.6235,87.8525,29.6938z    M82.8525,29.6938c0-0.8271,0.6729-1.5,1.5-1.5s1.5,0.6729,1.5,1.5s-0.6729,1.5-1.5,1.5S82.8525,30.521,82.8525,29.6938z"></path><path d="M57.7646,30.937c1.2839-0.6324,14.07-10.0105,31.5517-11.334l-0.1504-1.9941c-9.9473,0.7529-19.6396,3.9863-29.584,9.876   c-0.6602-8.2358-3.4951-16.811-8.6396-26.1509l-1.752,0.9648c5.3408,9.6958,8.1201,18.5078,8.498,26.9399L57.7646,30.937z"></path><path d="M58.0488,67.6733c-2.7275,4.5522-6.1592,8.9741-10.1982,13.1426l1.4355,1.3916   c4.1465-4.2783,7.6719-8.8223,10.4775-13.5059L58.0488,67.6733z"></path><path d="M63.1777,62.2011l-1.8203-0.8262c-0.5186,1.1421-1.085,2.2925-1.6836,3.4199l1.7676,0.9375   C62.0586,64.5688,62.6426,63.3808,63.1777,62.2011z"></path><path d="M59.4189,52.3549c-6.2637,20.77-23.5674,33.6826-37.9424,42.6118l1.0547,1.6992   C37.2051,87.5512,54.877,74.3432,61.333,52.9321c0.6123-2.0298,2.0518-3.689,3.9492-4.5518l28.0742-12.7607l-0.8281-1.8203   L64.4541,46.56C62.0322,47.6611,60.1973,49.7734,59.4189,52.3549z"></path><path d="M33.1211,20.0019c0.2559,1.1436,0.4785,2.2866,0.6592,3.3984l1.9746-0.3223c-0.1885-1.1499-0.418-2.332-0.6826-3.5137   L33.1211,20.0019z"></path><path d="M36.4219,31.4091c0.0137-1.644-0.0664-3.3501-0.2383-5.0708l-1.9902,0.1992c0.165,1.6489,0.2422,3.2827,0.2285,4.855   L36.4219,31.4091z"></path><path d="M36.2598,34.7983l-1.9922-0.1768c-0.5303,5.9712-2.4658,11.5371-5.7529,16.543l1.6719,1.0977   C33.6563,46.9775,35.6992,41.1015,36.2598,34.7983z"></path><path d="M8.4072,76.6674C38.8828,60.8217,48.252,37.2461,36.2559,6.5952l-1.8633,0.7285   C46.1172,37.2802,37.3154,59.3823,7.4854,74.893L8.4072,76.6674z"></path><path d="M22.6396,79.2802c1.9297,0,3.5-1.5703,3.5-3.5s-1.5703-3.5-3.5-3.5s-3.5,1.5703-3.5,3.5S20.71,79.2802,22.6396,79.2802z    M22.6396,74.2802c0.8271,0,1.5,0.6729,1.5,1.5s-0.6729,1.5-1.5,1.5s-1.5-0.6729-1.5-1.5S21.8125,74.2802,22.6396,74.2802z"></path><path d="M38.5664,67.7631c0,1.9297,1.5703,3.5,3.5,3.5c1.9297,0,3.5-1.5703,3.5-3.5s-1.5703-3.5-3.5-3.5   C40.1367,64.2631,38.5664,65.8335,38.5664,67.7631z M42.0664,66.2631c0.8272,0,1.5,0.6729,1.5,1.5s-0.6728,1.5-1.5,1.5   c-0.8271,0-1.5-0.6729-1.5-1.5S41.2393,66.2631,42.0664,66.2631z"></path><path d="M45.7129,52.7124c1.9297,0,3.5-1.5703,3.5-3.5s-1.5703-3.5-3.5-3.5s-3.5,1.5703-3.5,3.5S43.7832,52.7124,45.7129,52.7124z    M45.7129,47.7124c0.8271,0,1.5,0.6729,1.5,1.5s-0.6729,1.5-1.5,1.5s-1.5-0.6729-1.5-1.5S44.8857,47.7124,45.7129,47.7124z"></path><path d="M48.0664,19.7392c-1.9297,0-3.5,1.5703-3.5,3.5s1.5703,3.5,3.5,3.5c1.9297,0,3.5-1.5703,3.5-3.5   S49.9961,19.7392,48.0664,19.7392z M48.0664,24.7392c-0.8271,0-1.5-0.6729-1.5-1.5s0.6729-1.5,1.5-1.5c0.8272,0,1.5,0.6729,1.5,1.5   S48.8936,24.7392,48.0664,24.7392z"></path><path d="M46.0664,12.9594c1.9297,0,3.5-1.5703,3.5-3.5s-1.5703-3.5-3.5-3.5c-1.9297,0-3.5,1.5703-3.5,3.5   S44.1367,12.9594,46.0664,12.9594z M46.0664,7.9594c0.8272,0,1.5,0.6729,1.5,1.5s-0.6728,1.5-1.5,1.5c-0.8271,0-1.5-0.6729-1.5-1.5   S45.2393,7.9594,46.0664,7.9594z"></path><path d="M58.043,37.8056c0-1.9297-1.5703-3.5-3.5-3.5s-3.5,1.5703-3.5,3.5s1.5703,3.5,3.5,3.5S58.043,39.7353,58.043,37.8056z    M54.543,39.3056c-0.8271,0-1.5-0.6729-1.5-1.5s0.6729-1.5,1.5-1.5s1.5,0.6729,1.5,1.5S55.3701,39.3056,54.543,39.3056z"></path><path d="M69.5254,37.5693c0.8809-0.3125,1.5879-0.9487,1.9912-1.7925c1.1127-2.3347-0.6067-5.0078-3.1592-5.0078   c-2.4148,0-4.1029,2.3974-3.2998,4.6689C65.694,37.2345,67.6784,38.2207,69.5254,37.5693z M68.3574,32.769   c1.097,0,1.83,1.1492,1.3535,2.1465c-0.1729,0.3618-0.4756,0.6343-0.8525,0.7681c-0.7725,0.2744-1.6475-0.1558-1.915-0.9126   C66.5966,33.792,67.3286,32.769,68.3574,32.769z"></path><rect x="47.7966" y="59.1245" transform="matrix(-0.8714 0.4906 -0.4906 -0.8714 122.8694 88.0365)" width="4.1959" height="2"></rect><rect x="38.5673" y="55.9683" transform="matrix(-0.4904 -0.8715 0.8715 -0.4904 8.3696 121.0255)" width="1.9991" height="4.1951"></rect><rect x="26.708" y="82.0889" transform="matrix(-0.4904 -0.8715 0.8715 -0.4904 -32.0695 149.6218)" width="1.9991" height="4.1951"></rect><rect x="30.9638" y="65.6656" transform="matrix(0.4904 0.8715 -0.8715 0.4904 75.3407 6.6738)" width="1.9991" height="4.1951"></rect><rect x="52.4449" y="47.477" transform="matrix(-0.8713 0.4907 -0.4907 -0.8713 125.8546 63.9503)" width="4.1951" height="1.9991"></rect><rect x="46.3945" y="33.2077" transform="matrix(0.4902 0.8716 -0.8716 0.4902 54.9319 -23.3111)" width="2" height="4.1959"></rect><rect x="62.649" y="40.37" transform="matrix(-0.8713 0.4907 -0.4907 -0.8713 141.4623 45.6437)" width="4.1951" height="1.9991"></rect><polygon points="54.7373,91.5986 57.041,91.5986 57.041,89.5986 54.7373,89.5986 54.7373,87.2954 52.7373,87.2954 52.7373,89.5986    50.4346,89.5986 50.4346,91.5986 52.7373,91.5986 52.7373,93.9018 54.7373,93.9018  "></polygon><polygon points="90.1563,86.4897 87.8525,86.4897 87.8525,84.1865 85.8525,84.1865 85.8525,86.4897 83.5498,86.4897    83.5498,88.4897 85.8525,88.4897 85.8525,90.7929 87.8525,90.7929 87.8525,88.4897 90.1563,88.4897  "></polygon><polygon points="79.7139,64.5258 82.0166,64.5258 82.0166,62.5258 79.7139,62.5258 79.7139,60.2221 77.7139,60.2221    77.7139,62.5258 75.4102,62.5258 75.4102,64.5258 77.7139,64.5258 77.7139,66.8291 79.7139,66.8291  "></polygon><polygon points="67.3574,16.5761 69.3574,16.5761 69.3574,14.2729 71.6602,14.2729 71.6602,12.2729 69.3574,12.2729    69.3574,9.9697 67.3574,9.9697 67.3574,12.2729 65.0537,12.2729 65.0537,14.2729 67.3574,14.2729  "></polygon><polygon points="6.9463,52.809 8.9463,52.809 8.9463,50.5058 11.25,50.5058 11.25,48.5058 8.9463,48.5058 8.9463,46.2026    6.9463,46.2026 6.9463,48.5058 4.6436,48.5058 4.6436,50.5058 6.9463,50.5058  "></polygon><polygon points="21.1396,32.2226 23.1396,32.2226 23.1396,29.9194 25.4434,29.9194 25.4434,27.9194 23.1396,27.9194    23.1396,25.6162 21.1396,25.6162 21.1396,27.9194 18.8359,27.9194 18.8359,29.9194 21.1396,29.9194  "></polygon><polygon points="10.25,16.5761 12.25,16.5761 12.25,14.2729 14.5537,14.2729 14.5537,12.2729 12.25,12.2729 12.25,9.9697    10.25,9.9697 10.25,12.2729 7.9463,12.2729 7.9463,14.2729 10.25,14.2729  "></polygon></g></svg>