<svg height='100px' width='100px'  fill="#B30000" xmlns="http://www.w3.org/2000/svg" data-name="Слой 1" viewBox="0 0 128 128" x="0px" y="0px"><title>Breast Cancer, Cancer, Ribbon, Aids, Hiv</title><path d="M109.35,111.86C98.45,96.58,89.11,82.67,80.82,69.39Q91.47,51.91,101,34.24a2,2,0,0,0,.32-.91c0-.05,0-.1,0-.16s0-.13,0-.19a2,2,0,0,0-.29-.9c-.91-1.85-9.16-18.57-12.21-24.79C86.72,3,76.51,0,64,0S41.44,3,39.2,7.24C36,13.26,27.87,30.2,27,32.09a2,2,0,0,0-.22.56h0a2,2,0,0,0,0,.33c0,.06,0,.13,0,.19s0,.1,0,.15a2,2,0,0,0,.33.91C33.34,46,40.12,57.8,47.18,69.38,38.7,83,29.4,96.79,18.65,111.86a2,2,0,0,0,.55,2.84q10.11,6.5,20.14,13a2,2,0,0,0,2.7-.5q11.41-15.52,22-31.41c7,10.54,14.38,21.09,22,31.41a2,2,0,0,0,2.7.5q10-6.48,20.14-13a2,2,0,0,0,.55-2.84ZM42.75,9.1C43.68,7.32,50.87,4,64,4S84.39,7.34,85.23,9.05c1.87,3.81,5.7,11.58,8.59,17.45C87.31,23.79,77.07,22.31,64,22.31c-14.07,0-23.56,1.09-29.58,3.57C37.25,20.06,40.89,12.65,42.75,9.1ZM64,40.83c-2.62-4.71-5.18-9.47-7.75-14.39,2.66-.1,5.29-.13,7.74-.13q4.14,0,7.71.19Q67.91,33.77,64,40.83ZM31,33.17c3-4.22,11.73-5.88,20.86-6.51,3.27,6.28,6.5,12.28,9.85,18.26-3.9,6.91-7.93,13.75-12.16,20.63C43.07,54.87,36.84,44,31,33.17Zm8.93,90.12q-8.37-5.41-16.8-10.83C33.65,97.66,42.79,84,51.14,70.58l.07-.11c5.1-8.2,9.9-16.31,14.53-24.55l.07-.13c3.5-6.23,6.9-12.53,10.27-19C88.36,27.89,94.84,30.61,97,33.21A783.73,783.73,0,0,1,39.92,123.3Zm48.15,0C80.58,113.05,73.3,102.59,66.4,92.16q6.21-9.44,12.09-19c7.76,12.35,16.42,25.24,26.39,39.28Q96.44,117.89,88.08,123.3Z"></path></svg>