<svg height='100px' width='100px'  fill="#09b282" xmlns="http://www.w3.org/2000/svg" xmlns:xlink="http://www.w3.org/1999/xlink" version="1.1" x="0px" y="0px" viewBox="0 0 100 100" enable-background="new 0 0 100 100" xml:space="preserve"><g><path fill="none" d="M69.738,30.222c-0.687-0.69-1.802-0.69-2.488,0L43.047,54.424L32.752,44.129c-0.687-0.687-1.802-0.687-2.49,0   l-5.809,5.809c-0.688,0.69-0.688,1.806,0,2.492l17.349,17.349c0.343,0.343,0.794,0.517,1.246,0.517c0.45,0,0.901-0.174,1.244-0.517   l31.256-31.256c0.332-0.332,0.517-0.781,0.517-1.246c0-0.469-0.185-0.918-0.517-1.246L69.738,30.222z"></path><path d="M49.999,5C25.147,5,5,25.147,5,50.001C5,74.853,25.147,95,49.999,95C74.853,95,95,74.853,95,50.001   C95,25.147,74.853,5,49.999,5z M75.547,38.523L44.292,69.779c-0.344,0.343-0.794,0.517-1.244,0.517   c-0.453,0-0.903-0.174-1.246-0.517L24.453,52.43c-0.688-0.687-0.688-1.802,0-2.492l5.809-5.809c0.688-0.687,1.804-0.687,2.49,0   l10.295,10.295L67.25,30.222c0.687-0.69,1.802-0.69,2.488,0l5.809,5.809c0.332,0.329,0.517,0.777,0.517,1.246   C76.064,37.742,75.88,38.191,75.547,38.523z"></path></g></svg>