<svg height='100px' width='100px'  fill="#B30000" xmlns="http://www.w3.org/2000/svg" xmlns:xlink="http://www.w3.org/1999/xlink" version="1.1" x="0px" y="0px" viewBox="0 0 64 64" style="enable-background:new 0 0 64 64;" xml:space="preserve"><g><path d="M59,12c-0.732,0-1.409,0.212-2,0.556V11c0-2.206-1.794-4-4-4c-0.829,0-1.6,0.254-2.239,0.687C50.214,6.128,48.744,5,47,5   s-3.214,1.128-3.761,2.687C42.6,7.254,41.829,7,41,7c-1.859,0-3.411,1.28-3.858,3h-6.537C30.127,8.153,29.224,6.48,28,5.089V5   h-0.081C25.721,2.552,22.542,1,19,1H6C3.243,1,1,3.243,1,6v14c0,2.757,2.243,5,5,5h13c3.542,0,6.721-1.552,8.919-4H28v-0.089   c1.224-1.391,2.127-3.064,2.605-4.911H37v18.586l-1-1V28.5c0-2.481-2.019-4.5-4.5-4.5S27,26.019,27,28.5v9.755l5.221,9.572   c0.688,1.261,1.73,2.267,3.015,2.909L37,51.618V63h2V50.382l-2.87-1.435c-0.917-0.458-1.662-1.177-2.153-2.078L29,37.745V28.5   c0-1.378,1.121-2.5,2.5-2.5s2.5,1.122,2.5,2.5v5.914L36.586,37H39V16h2v-6h-1.722C39.625,9.405,40.263,9,41,9c1.103,0,2,0.897,2,2   v17h2V11V9c0-1.103,0.897-2,2-2s2,0.897,2,2v2v1v16h2V12v-1c0-1.103,0.897-2,2-2s2,0.897,2,2v5v1v11h2V17v-1c0-1.103,0.897-2,2-2   s2,0.897,2,2v30c0,1.906-1.059,3.62-2.763,4.472L57,51.089V63h2V52.327l0.131-0.065C61.518,51.067,63,48.668,63,46V16   C63,13.794,61.206,12,59,12z M19,23H6c-1.654,0-3-1.346-3-3V6c0-1.654,1.346-3,3-3h13c2.241,0,4.305,0.75,5.974,2H24   c-1.654,0-3,1.346-3,3v10c0,1.654,1.346,3,3,3h0.974C23.305,22.25,21.241,23,19,23z M26.981,19H24c-0.552,0-1-0.449-1-1V8   c0-0.551,0.448-1,1-1h2.981C28.242,8.674,29,10.747,29,13S28.242,17.326,26.981,19z M39,14h-8.051C30.977,13.669,31,13.338,31,13   s-0.023-0.669-0.051-1H39V14z"></path><path d="M42.707,34.293l-1.414,1.414l2.485,2.485C45.855,40.271,47,43.033,47,45.971V50h2v-4.029c0-3.472-1.353-6.736-3.808-9.192   L42.707,34.293z"></path><path d="M5,21h14V5H5V21z M7,7h10v12H7V7z"></path><rect x="9" y="15" width="2" height="2"></rect><rect x="13" y="15" width="2" height="2"></rect></g></svg>