<svg height='100px' width='100px'  fill="#B30000" xmlns="http://www.w3.org/2000/svg" viewBox="0 0 64 64" x="0px" y="0px"><title>Heart Health,Heart Attack,Ecp,Heart Monitor,Heart Beat</title><g data-name="Heart Health,Heart Attack,Ecp,Heart Monitor,Heart Beat"><path d="M56.15,35.13c2.5-3.87,5.1-9.43,4.67-15.41,0,0,0-.06,0-.09A14.63,14.63,0,0,0,52.67,7.42a14.55,14.55,0,0,0-20.12,8.32,15.63,15.63,0,0,0-7.23-8.1A14.5,14.5,0,0,0,9.49,9.36c-4,3.5-5.92,9.66-4.8,15.7a23.86,23.86,0,0,0,2,6.07l-.23.65H3.26a1,1,0,1,0,0,2h4a1,1,0,0,0,.94-.67l2.78-8,3.26,8.1a1,1,0,0,0,.92.62H18.3l1.78,7.15a1,1,0,0,0,1,.76,1,1,0,0,0,1-.76l1.79-7.15H25a1,1,0,0,0,1-.73l1.6-5.75L30,37.94a1,1,0,0,0,2,0l.83-4.14h3.13a1,1,0,0,0,0-2h-4a1,1,0,0,0-1,.81l-.07.32L28.65,23a1,1,0,0,0-.95-.79,1,1,0,0,0-1,.74l-2.46,8.85H23a1,1,0,0,0-1,.76l-1,4-1-4a1,1,0,0,0-1-.76H15.8l-4-10a.92.92,0,0,0-1-.62,1,1,0,0,0-.92.67L7.7,28.32a20.89,20.89,0,0,1-1-3.63c-1-5.35.63-10.78,4.14-13.82A12.48,12.48,0,0,1,24.41,9.41,14.17,14.17,0,0,1,31.7,21c0,.1,0,.21,0,.31a1,1,0,0,0,2-.08c0-.11,0-.22,0-.32A12.61,12.61,0,0,1,51.8,9.22a12.6,12.6,0,0,1,7,11.29h0c.17,5.26-2.21,10.21-4.46,13.67a12.42,12.42,0,0,0-16.8,15c-1.22.71-2.53,1.41-4,2.15a3.19,3.19,0,0,1-.85.33,3,3,0,0,1-1.31-.39A54.5,54.5,0,0,1,14,38.23c-.82-.92-1.6-1.87-2.31-2.83h0c-.38-.5-.74-1-1.08-1.52A1,1,0,1,0,9,35c.36.54.74,1.07,1.13,1.6h0c.74,1,1.56,2,2.42,3A56.56,56.56,0,0,0,30.57,53.07a5,5,0,0,0,2.07.58,1.51,1.51,0,0,0,.3,0,4.44,4.44,0,0,0,1.55-.53c1.4-.7,2.67-1.38,3.85-2.05A12.41,12.41,0,1,0,56.15,35.13ZM49.47,56A10.42,10.42,0,1,1,59.89,45.58,10.42,10.42,0,0,1,49.47,56Z"></path><path d="M56.54,42.41H52.65V38.52a1,1,0,0,0-1-1H47.3a1,1,0,0,0-1,1v3.89H42.41a1,1,0,0,0-1,1v4.35a1,1,0,0,0,1,1H46.3v3.89a1,1,0,0,0,1,1h4.35a1,1,0,0,0,1-1V48.76h3.89a1,1,0,0,0,1-1V43.41A1,1,0,0,0,56.54,42.41Zm-1,4.35H51.65a1,1,0,0,0-1,1v3.89H48.3V47.76a1,1,0,0,0-1-1H43.41V44.41H47.3a1,1,0,0,0,1-1V39.52h2.35v3.89a1,1,0,0,0,1,1h3.89Z"></path></g></svg>