<svg height='100px' width='100px'  fill="#B30000" xmlns="http://www.w3.org/2000/svg" data-name="Layer 1" viewBox="0 0 128 128" x="0px" y="0px"><title>human Anatomy final</title><path d="M62.326,61.97253h4.33948c4.84851.28223,6.73279-1.67865,7.45862-3.38373a11.327,11.327,0,0,0,.41125-3.45795l.02032-.39258a7.64146,7.64146,0,0,0-.15479-2.082c1.7981-2.57709.7616-5.826-.01843-8.27625a11.55784,11.55784,0,0,1-.70837-2.97943,3.705,3.705,0,0,1,.22064-.88574A6.36668,6.36668,0,0,0,74.2818,37.553a21.11453,21.11453,0,0,0-.77808-3.247,17.75055,17.75055,0,0,1-.64648-2.64551,16.83591,16.83591,0,0,1-.07452-2.49115,21.2039,21.2039,0,0,0-.09094-2.9668c-.16937-1.38177-.43646-2.72552-.69489-4.02533l-.21967-1.12109a9.17163,9.17163,0,0,1,.33679-3.38177,15.52334,15.52334,0,0,0,.49261-3.95892,24.43164,24.43164,0,0,0-.74133-5.081c1.77-3.26166.25647-7.19226.18579-7.37292A1.97177,1.97177,0,0,0,69.48749.14526a2.00957,2.00957,0,0,0-1.12262,2.58691c.00958.027.98743,2.71906-.16583,4.26947H60.79242c-1.14673-1.54236-.18689-4.21155-.16583-4.26849a2.00527,2.00527,0,0,0-1.111-2.58887,1.97244,1.97244,0,0,0-2.5752,1.11719c-.07068.18066-1.58423,4.11127.18579,7.37292a24.43137,24.43137,0,0,0-.74133,5.082,15.5212,15.5212,0,0,0,.49261,3.95795,9.17163,9.17163,0,0,1,.33679,3.38177l-.21967,1.12109c-.25842,1.2998-.52551,2.64355-.69489,4.02728a21.16766,21.16766,0,0,0-.09094,2.96484,16.85355,16.85355,0,0,1-.07452,2.49213,17.76855,17.76855,0,0,1-.64648,2.64453,21.08543,21.08543,0,0,0-.77808,3.249,6.362,6.362,0,0,0,.38708,2.9599,3.705,3.705,0,0,1,.22064.88574A11.55784,11.55784,0,0,1,54.609,44.38c-.78,2.4502-1.81653,5.69916-.01843,8.27625a7.63408,7.63408,0,0,0-.15479,2.08105l.02026.39355a11.30839,11.30839,0,0,0,.41229,3.4599c.67841,1.59082,2.36523,3.4101,6.53729,3.4101C61.69885,62.00085,62.00665,61.99109,62.326,61.97253ZM60.671,11.00159H68.3205a20.832,20.832,0,0,1,.326,2.87689,12.39225,12.39225,0,0,1-.40643,2.94818c-.01239.05731-.02478.11688-.03717.1748H60.78857c-.01239-.05792-.02478-.11749-.03717-.1748a12.39124,12.39124,0,0,1-.40643-2.9472A20.83652,20.83652,0,0,1,60.671,11.00159Zm-.4364,15.69116c.151-1.23242.392-2.44525.64648-3.73041l.22552-1.14648a7.40455,7.40455,0,0,0,.10394-.81445h6.57031a7.40455,7.40455,0,0,0,.10394.81445l.22552,1.14648c.25452,1.28516.49548,2.498.64648,3.72845a17.03259,17.03259,0,0,1,.06354,2.31055H60.17108A16.9945,16.9945,0,0,1,60.23462,26.69275ZM58.63684,38.094a17.89348,17.89348,0,0,1,.64746-2.63867c.23395-.78741.47327-1.5968.64282-2.454H69.064c.17.85754.4093,1.66675.64319,2.454a17.93083,17.93083,0,0,1,.64746,2.63672,2.7196,2.7196,0,0,1-.22742,1.17963c-.07135.21948-.14734.46667-.21655.72949H59.08081c-.06921-.26282-.1452-.51-.21655-.72949A2.71656,2.71656,0,0,1,58.63684,38.094Zm-.25354,7.51062c.16907-.53052.33185-1.06732.47876-1.60352h11.2674c.14685.53619.30963,1.073.4787,1.60352.62634,1.96405,1.02393,3.42706.687,4.39642H57.69635C57.35938,49.03168,57.757,47.56866,58.3833,45.60461ZM58.5672,57.124c-.04553-.32709-.0968-1.06244-.152-2.19037-.01062-.22461-.01935-.39746-.02515-.48437a2.99233,2.99233,0,0,1,.0058-.44824H70.59546a2.99731,2.99731,0,0,1,.00592.44922c-.0058.08594-.01453.25879-.02515.4834-.05518,1.127-.10645,1.8623-.152,2.18939-.5545.93359-2.66327.9082-3.57587.85352-.04065-.00293-.08228-.00391-.12292-.00391H62.266c-.04065,0-.08228.001-.12292.00391C61.2334,58.03021,59.11975,58.05658,58.5672,57.124Z"></path><path d="M111.403,70.05786c.699-1.68225,1.55011-3.373,2.45111-5.1629a53.15186,53.15186,0,0,0,4.35-10.46973,25.51342,25.51342,0,0,0,.74011-4.194c.50348-5.72443-2.50574-9.47913-4.92371-12.496-.41742-.52081-.81567-1.01764-1.19769-1.52063-1.89435-3.60065-7.49915-5.36487-10.80029-6.1131a3.93118,3.93118,0,0,0-.81592-.09686c-.14215-.002-.28186-.00287-.42261-.00287h-.00018A27.92119,27.92119,0,0,0,81.49792,37.4151a5.648,5.648,0,0,0-1.77985,4.2132,5.88407,5.88407,0,0,0,.86377,2.944,3.858,3.858,0,0,0-.40784.64557l-1.83783,3.72351a4.03177,4.03177,0,0,0,.12317,3.79694,1.48659,1.48659,0,0,1-.37366,1.05469,4.03081,4.03081,0,0,0-.39923,3.82623,3.97111,3.97111,0,0,0,2.98322,2.396l5.02417.87311a5.48359,5.48359,0,0,0,.2442,1.12109,5.737,5.737,0,0,0,3.0614,3.36713c.80127.37653,1.28314.603.36084,2.60217a11.58665,11.58665,0,0,1-.84912,1.3924,16.013,16.013,0,0,0-1.64764,2.91608,14.62141,14.62141,0,0,0-.87927,3.95026,7.9453,7.9453,0,0,1-.34631,1.86035,11.79093,11.79093,0,0,1-2.07007,1.76782l-.19409.1427A27.242,27.242,0,0,1,75.97845,83.661c-2.76031.94495-4.54572,3.113-4.54572,5.52209,0,2.04614,1.11011,3.54041,3.28015,4.46216-.01123.03558-.02875.06757-.03815.10419a9.16455,9.16455,0,0,0,8.03345,11.19617c.62805.0332,1.26392.05762,1.90552.05762a13.0733,13.0733,0,0,0,7.58881-2.076c-.10712,5.05731-.49554,15.40527-1.90509,22.69a1.99836,1.99836,0,0,0,1.56586,2.3457A1.95491,1.95491,0,0,0,92.24457,128a1.98724,1.98724,0,0,0,1.9433-1.61719c1.99457-10.30847,2.01971-25.819,2.01971-26.47424a2.00668,2.00668,0,0,0-.05084-.42841c1.77136-1.854,3.44623-4.16064,2.90192-5.86548l-.00293.001c-.08386-.23572-.38312-.99426-1.65338-4.21442.306-.16895.58478-.31958.80194-.42731a3.99954,3.99954,0,0,0,2.197-3.20813c.18835-1.98346,3.05823-4.35614,4.00128-5.13586.23639-.19537.47662-.38654.71625-.57751.63165-.50342,1.3374-1.06873,2.02856-1.73993a6.13312,6.13312,0,0,1,2.95251,3.09827c.02423.04492,2.37494,4.55267-.28937,7.29285a2.0349,2.0349,0,0,0-.24872.3125c-.13257.207-3.23718,5.06537-4.11108,8.50482a116.76715,116.76715,0,0,0-5.03046,28.39508,1.99207,1.99207,0,0,0,1.89685,2.082c.02808.001.05615.002.08417.002a1.98979,1.98979,0,0,0,1.97913-1.916,114.64736,114.64736,0,0,1,4.85529-27.3717c.01648-.0498.03094-.10059.04358-.15137a32.29739,32.29739,0,0,1,3.511-7.21375c4.45654-4.80853.9552-11.54089.82257-11.78894a10.19812,10.19812,0,0,0-4.06635-4.48669,21.73928,21.73928,0,0,0,1.27014-3.30939C111.01227,71.14087,111.1969,70.55408,111.403,70.05786ZM86.413,56.95447l-5.0705-.88116c2.08838-3.03711.542-5.34869.542-5.34869l1.58484-3.21106c.51825.47382.89551.82471.90277.83148a3.95685,3.95685,0,0,0,1.42389.85144l.4903.16644A46.09584,46.09584,0,0,1,86.413,56.95447ZM90.34583,99.3783c-2.11169,1.53906-4.24658,1.7373-7.4325,1.57324A4.91906,4.91906,0,0,1,79.382,98.84412a5.01005,5.01005,0,0,1-.97858-3.46619,7.43705,7.43705,0,0,0,3.06152.62262c3.5603,0,7.88983-2.08478,12.44824-4.62665.32806.83148.89838,2.27692,1.20569,3.05524A28.17727,28.17727,0,0,1,90.34583,99.3783Zm17.40149-30.86682c-.70551,1.6983-1.02966,3.58008-1.95392,5.18066-.9455,1.63763-2.48041,2.66791-3.903,3.84375-2.341,1.93549-5.12628,4.59753-5.435,7.84845-2.863,1.42035-10.67249,6.61627-14.99048,6.61627a3.31517,3.31517,0,0,1-1.719-.40442,16.55637,16.55637,0,0,0-2.52985-1.28027c-1.00928-.373-1.81934-.4931-1.81934-1.13281,0-.63867.84-1.38666,1.85815-1.73523a31.33322,31.33322,0,0,0,8.4563-4.209c1.15454-.85059,2.88879-2.0733,3.51111-3.4317.868-1.89441.5235-4.07111,1.30743-5.99884.6-1.4726,1.7536-2.6875,2.42426-4.14154,1.502-3.2558,1.20874-6.27637-2.27808-7.915a1.61446,1.61446,0,0,1-.82849-2.3476c1.34912-2.59076.12872-13.00867.12872-13.00867l-2.91589-.99017s-1.46619-1.36517-2.67773-2.42572a1.75117,1.75117,0,0,1-.18488-2.63574,24.06193,24.06193,0,0,1,16.58643-6.34222c.12317,0,.24548.00085.36981.0025,0,0,7.29028,1.65228,8.26184,4.29584,2.72913,3.6825,6.02252,6.54773,5.58026,11.576a21.36246,21.36246,0,0,1-.62524,3.53125C112.97815,58.747,109.80475,63.55945,107.74731,68.51147Z"></path><path d="M56.56738,89.18311c0-2.40912-1.7854-4.57709-4.54846-5.52307A27.23109,27.23109,0,0,1,44.629,80.01031l-.1969-.14478a11.78933,11.78933,0,0,1-2.06995-1.76776,7.943,7.943,0,0,1-.34637-1.86035,14.61579,14.61579,0,0,0-.87817-3.94751A16.01492,16.01492,0,0,0,39.489,69.37109a11.58639,11.58639,0,0,1-.849-1.39215c-.92242-1.99945-.44061-2.22589.35779-2.60107a5.7388,5.7388,0,0,0,3.06433-3.36847,5.46325,5.46325,0,0,0,.2525-1.54474,3.8818,3.8818,0,0,0,2.87848.42822,3.97053,3.97053,0,0,0,2.63318-2.1087l1.83789-3.72351a4.03161,4.03161,0,0,0-.12323-3.79694,1.48676,1.48676,0,0,1,.37372-1.05469,4.03078,4.03078,0,0,0,.39917-3.82623,3.97044,3.97044,0,0,0-2.62549-2.30994A5.85257,5.85257,0,0,0,48.282,41.6283a5.64671,5.64671,0,0,0-1.77777-4.21124A27.92086,27.92086,0,0,0,27.216,30.00171c-.14075,0-.2804.00092-.42261.00287a3.93109,3.93109,0,0,0-.81586.09686c-3.30115.74823-8.90594,2.51245-10.80035,6.1131-.38208.503-.78021.99988-1.19769,1.52075-2.41791,3.01691-5.42712,6.77155-4.92377,12.49438a25.53049,25.53049,0,0,0,.741,4.19873A53.14936,53.14936,0,0,0,14.146,64.895c.901,1.78992,1.75208,3.48065,2.45111,5.16309.20612.496.39075,1.08282.5863,1.7041a21.7617,21.7617,0,0,0,1.26709,3.30347,10.10551,10.10551,0,0,0-4.04169,4.45264c-.15289.287-3.65527,7.02039.80133,11.82892a32.3,32.3,0,0,1,3.511,7.21375q.01886.07764.04358.15234A114.35176,114.35176,0,0,1,23.62006,126.084,1.9897,1.9897,0,0,0,25.59912,128c.02808,0,.05615-.001.08423-.002a1.992,1.992,0,0,0,1.89679-2.082,116.76715,116.76715,0,0,0-5.03046-28.39508c-.8739-3.43945-3.97852-8.29779-4.11108-8.50482a2.03122,2.03122,0,0,0-.24872-.3125c-2.63428-2.70892-.30872-7.25476-.26807-7.33289a6.0512,6.0512,0,0,1,2.927-3.06189,26.76522,26.76522,0,0,0,2.03253,1.74365c.23962.191.47974.38208.71643.5777.94281.77948,3.81274,3.15222,4.001,5.13568a3.99966,3.99966,0,0,0,2.197,3.20807c.21716.10773.496.25842.80225.42749-1.27026,3.22-1.56946,3.97852-1.65338,4.21423l-.00287-.001c-.54431,1.7049,1.13062,4.0116,2.902,5.8656a2.00223,2.00223,0,0,0-.051.42828c0,.65527.02515,16.16577,2.01971,26.47424A1.98733,1.98733,0,0,0,35.75586,128a1.95491,1.95491,0,0,0,.38129-.03711,1.99836,1.99836,0,0,0,1.56586-2.3457c-1.40948-7.28455-1.79791-17.63208-1.905-22.68951a13.07687,13.07687,0,0,0,7.58777,2.07556c.64264,0,1.27844-.02441,1.90656-.05762a9.16455,9.16455,0,0,0,8.03345-11.19617c-.00946-.03668-.02692-.0686-.03827-.10425C55.4574,92.72345,56.56738,91.22913,56.56738,89.18311ZM46.65778,47.92877c-2.08838,3.037-.54193,5.34863-.54193,5.34863l-1.83777,3.72351L42.45868,55.626a4.91787,4.91787,0,0,1-.978-1.2926c.00726-1.44464.08606-3.18439.23242-4.97021l.491-.16675a3.95717,3.95717,0,0,0,1.42383-.85132c.00708-.00659.36346-.3382.861-.79321Zm1.96069,50.91534a4.919,4.919,0,0,1-3.53137,2.10742c-3.19073.167-5.3208-.03418-7.43341-1.57324a28.20827,28.20827,0,0,1-4.77209-4.94916c.30725-.77887.87744-2.22375,1.20563-3.05511,4.55829,2.54187,8.88782,4.62653,12.448,4.62653a7.43765,7.43765,0,0,0,3.06189-.62274A5.0098,5.0098,0,0,1,48.61847,98.84412Zm2.16553-8.5282a16.55578,16.55578,0,0,0-2.52979,1.28027,3.31532,3.31532,0,0,1-1.719.40442c-4.31805,0-12.1275-5.19592-14.99048-6.61627-.30872-3.25092-3.094-5.913-5.43506-7.84845-1.42255-1.17584-2.95752-2.20612-3.903-3.84375-.92419-1.60059-1.24835-3.48236-1.95386-5.18066-2.0575-4.952-5.23083-9.76447-6.62341-15.10419a21.35609,21.35609,0,0,1-.62524-3.53125c-.44226-5.02826,2.85114-7.89349,5.5802-11.576.97162-2.64355,8.2619-4.29584,8.2619-4.29584.12439-.00165.24664-.0025.36975-.0025a24.05938,24.05938,0,0,1,16.58643,6.34222,1.75116,1.75116,0,0,1-.18475,2.63574c-1.21167,1.06055-2.6778,2.42572-2.6778,2.42572l-2.91589.99017s-1.22046,10.41791.12866,13.00867a1.6144,1.6144,0,0,1-.82843,2.3476c-3.48682,1.63861-3.78009,4.65918-2.27808,7.915.67065,1.454,1.82416,2.66895,2.42426,4.14154.78387,1.92773.43945,4.10443,1.30737,5.99884.62244,1.3584,2.35669,2.58112,3.51117,3.4317a31.33181,31.33181,0,0,0,8.45636,4.209c1.018.34857,1.85809,1.09656,1.85809,1.73523C52.60339,89.82281,51.7934,89.94287,50.784,90.31592Z"></path></svg>