<svg height='100px' width='100px'  fill="#B3B3B3" xmlns="http://www.w3.org/2000/svg" xmlns:xlink="http://www.w3.org/1999/xlink" version="1.1" x="0px" y="0px" viewBox="0 0 100 100" style="enable-background:new 0 0 100 100;" xml:space="preserve"><path d="M67.2060547,43.6513672c0.5527344,0,1-0.4477539,1-1v-3.984375c0-0.5522461-0.4472656-1-1-1s-1,0.4477539-1,1v3.984375  C66.2060547,43.2036133,66.6533203,43.6513672,67.2060547,43.6513672z"></path><path d="M73.6855469,43.6513672c0.5527344,0,1-0.4477539,1-1v-3.984375c0-0.5522461-0.4472656-1-1-1s-1,0.4477539-1,1v3.984375  C72.6855469,43.2036133,73.1328125,43.6513672,73.6855469,43.6513672z"></path><path d="M80.1650391,43.6513672c0.5527344,0,1-0.4477539,1-1v-3.984375c0-0.5522461-0.4472656-1-1-1s-1,0.4477539-1,1v3.984375  C79.1650391,43.2036133,79.6123047,43.6513672,80.1650391,43.6513672z"></path><path d="M67.2060547,52.5209961c0.5527344,0,1-0.4477539,1-1v-3.9848633c0-0.5522461-0.4472656-1-1-1s-1,0.4477539-1,1v3.9848633  C66.2060547,52.0732422,66.6533203,52.5209961,67.2060547,52.5209961z"></path><path d="M73.6855469,52.5209961c0.5527344,0,1-0.4477539,1-1v-3.9848633c0-0.5522461-0.4472656-1-1-1s-1,0.4477539-1,1v3.9848633  C72.6855469,52.0732422,73.1328125,52.5209961,73.6855469,52.5209961z"></path><path d="M80.1650391,52.5209961c0.5527344,0,1-0.4477539,1-1v-3.9848633c0-0.5522461-0.4472656-1-1-1s-1,0.4477539-1,1v3.9848633  C79.1650391,52.0732422,79.6123047,52.5209961,80.1650391,52.5209961z"></path><path d="M89,88h-1.5371094V24.375c0-0.5522461-0.4472656-1-1-1c-5.84729,0-10.7080078,1.3652344-14.6455078,3.258667V20.625  c0-0.5522461-0.4472656-1-1-1h-9.4208984V11c0-0.5522461-0.4472656-1-1-1s-1,0.4477539-1,1v8.625h-9.7460938  c-0.5527344,0-1,0.4477539-1,1v21.5625h-4.9492188c-0.5527344,0-1,0.4477539-1,1v8.4150391H28.171875c-0.5527344,0-1,0.4477539-1,1  V88h-8.0009766v-6.1549683c2.9527588-0.4806519,5.2158203-3.041687,5.2158203-6.1282349  c0-3.4277344-2.7880859-6.2167969-6.2158203-6.2167969s-6.2167969,2.7890625-6.2167969,6.2167969  c0,3.0865479,2.263916,5.647583,5.2167969,6.1282349V88H11c-0.5527344,0-1,0.4477539-1,1s0.4472656,1,1,1h78  c0.5527344,0,1-0.4477539,1-1S89.5527344,88,89,88z M13.9541016,75.7167969c0-2.3251953,1.8916016-4.2167969,4.2167969-4.2167969  c2.3242188,0,4.2158203,1.8916016,4.2158203,4.2167969c0,2.324707-1.8916016,4.2163086-4.2158203,4.2163086  C15.8457031,79.9331055,13.9541016,78.0415039,13.9541016,75.7167969z M77.8183594,88h-9.6123047v-9.0478516h9.6123047V88z   M78.8183594,76.9521484H67.2060547c-0.5527344,0-1,0.4477539-1,1V88h-5.6445312V58.3989258h24.9013672V88h-5.6445312V77.9521484  C79.8183594,77.3999023,79.3710938,76.9521484,78.8183594,76.9521484z M85.4628906,56.3989258H60.5615234v-17.612793  c1.1044922-1.7114258,8.9550781-12.9418945,24.9013672-13.3969727V56.3989258z M50.6503906,21.625h19.1669922v6.059082  C62.2973633,31.9639893,58.7505493,37.90448,58.6962891,37.9980469C58.6083984,38.1503906,58.5615234,38.3237305,58.5615234,38.5  v3.6875h-7.9111328V21.625z M58.5615234,44.1875V88H44.7011719V52.6073608c0-0.001709,0.0009766-0.0031128,0.0009766-0.0048218  s-0.0009766-0.0031128-0.0009766-0.0048218V44.1875H58.5615234z M29.171875,53.6025391h13.5292969V88H29.171875V53.6025391z"></path><path d="M49.2167969,53.6025391c0.5527344,0,1-0.4477539,1-1V50c0-0.5522461-0.4472656-1-1-1s-1,0.4477539-1,1v2.6025391  C48.2167969,53.1547852,48.6640625,53.6025391,49.2167969,53.6025391z"></path><path d="M54.0068359,53.6025391c0.5527344,0,1-0.4477539,1-1V50c0-0.5522461-0.4472656-1-1-1s-1,0.4477539-1,1v2.6025391  C53.0068359,53.1547852,53.4541016,53.6025391,54.0068359,53.6025391z"></path><path d="M49.2167969,61.0014648c0.5527344,0,1-0.4477539,1-1v-2.6025391c0-0.5522461-0.4472656-1-1-1s-1,0.4477539-1,1v2.6025391  C48.2167969,60.5537109,48.6640625,61.0014648,49.2167969,61.0014648z"></path><path d="M54.0068359,61.0014648c0.5527344,0,1-0.4477539,1-1v-2.6025391c0-0.5522461-0.4472656-1-1-1s-1,0.4477539-1,1v2.6025391  C53.0068359,60.5537109,53.4541016,61.0014648,54.0068359,61.0014648z"></path><path d="M49.2167969,68.4008789c0.5527344,0,1-0.4477539,1-1v-2.6030273c0-0.5522461-0.4472656-1-1-1s-1,0.4477539-1,1v2.6030273  C48.2167969,67.953125,48.6640625,68.4008789,49.2167969,68.4008789z"></path><path d="M54.0068359,68.4008789c0.5527344,0,1-0.4477539,1-1v-2.6030273c0-0.5522461-0.4472656-1-1-1s-1,0.4477539-1,1v2.6030273  C53.0068359,67.953125,53.4541016,68.4008789,54.0068359,68.4008789z"></path><path d="M49.2167969,75.7998047c0.5527344,0,1-0.4477539,1-1v-2.6030273c0-0.5522461-0.4472656-1-1-1s-1,0.4477539-1,1v2.6030273  C48.2167969,75.3520508,48.6640625,75.7998047,49.2167969,75.7998047z"></path><path d="M54.0068359,75.7998047c0.5527344,0,1-0.4477539,1-1v-2.6030273c0-0.5522461-0.4472656-1-1-1s-1,0.4477539-1,1v2.6030273  C53.0068359,75.3520508,53.4541016,75.7998047,54.0068359,75.7998047z"></path><path d="M49.2167969,83.1987305c0.5527344,0,1-0.4477539,1-1v-2.6025391c0-0.5522461-0.4472656-1-1-1s-1,0.4477539-1,1v2.6025391  C48.2167969,82.7509766,48.6640625,83.1987305,49.2167969,83.1987305z"></path><path d="M54.0068359,83.1987305c0.5527344,0,1-0.4477539,1-1v-2.6025391c0-0.5522461-0.4472656-1-1-1s-1,0.4477539-1,1v2.6025391  C53.0068359,82.7509766,53.4541016,83.1987305,54.0068359,83.1987305z"></path><path d="M33.6875,56.3989258c-0.5527344,0-1,0.4477539-1,1v2.6025391c0,0.5522461,0.4472656,1,1,1s1-0.4477539,1-1v-2.6025391  C34.6875,56.8466797,34.2402344,56.3989258,33.6875,56.3989258z"></path><path d="M38.4775391,56.3989258c-0.5527344,0-1,0.4477539-1,1v2.6025391c0,0.5522461,0.4472656,1,1,1s1-0.4477539,1-1v-2.6025391  C39.4775391,56.8466797,39.0302734,56.3989258,38.4775391,56.3989258z"></path><path d="M33.6875,63.7978516c-0.5527344,0-1,0.4477539-1,1v2.6030273c0,0.5522461,0.4472656,1,1,1s1-0.4477539,1-1v-2.6030273  C34.6875,64.2456055,34.2402344,63.7978516,33.6875,63.7978516z"></path><path d="M38.4775391,63.7978516c-0.5527344,0-1,0.4477539-1,1v2.6030273c0,0.5522461,0.4472656,1,1,1s1-0.4477539,1-1v-2.6030273  C39.4775391,64.2456055,39.0302734,63.7978516,38.4775391,63.7978516z"></path><path d="M33.6875,71.1967773c-0.5527344,0-1,0.4477539-1,1v2.6030273c0,0.5522461,0.4472656,1,1,1s1-0.4477539,1-1v-2.6030273  C34.6875,71.6445312,34.2402344,71.1967773,33.6875,71.1967773z"></path><path d="M38.4775391,71.1967773c-0.5527344,0-1,0.4477539-1,1v2.6030273c0,0.5522461,0.4472656,1,1,1s1-0.4477539,1-1v-2.6030273  C39.4775391,71.6445312,39.0302734,71.1967773,38.4775391,71.1967773z"></path><path d="M33.6875,78.5961914c-0.5527344,0-1,0.4477539-1,1v2.6025391c0,0.5522461,0.4472656,1,1,1s1-0.4477539,1-1v-2.6025391  C34.6875,79.0439453,34.2402344,78.5961914,33.6875,78.5961914z"></path><path d="M38.4775391,78.5961914c-0.5527344,0-1,0.4477539-1,1v2.6025391c0,0.5522461,0.4472656,1,1,1s1-0.4477539,1-1v-2.6025391  C39.4775391,79.0439453,39.0302734,78.5961914,38.4775391,78.5961914z"></path><path d="M67.2060547,66.2260742h11.6123047c0.5527344,0,1-0.4477539,1-1s-0.4472656-1-1-1H67.2060547c-0.5527344,0-1,0.4477539-1,1  S66.6533203,66.2260742,67.2060547,66.2260742z"></path><path d="M78.8183594,70.2260742H67.2060547c-0.5527344,0-1,0.4477539-1,1s0.4472656,1,1,1h11.6123047c0.5527344,0,1-0.4477539,1-1  S79.3710938,70.2260742,78.8183594,70.2260742z"></path></svg>