<svg height='100px' width='100px'  fill="#B3B3B3" xmlns:dc="http://purl.org/dc/elements/1.1/" xmlns:cc="http://creativecommons.org/ns#" xmlns:rdf="http://www.w3.org/1999/02/22-rdf-syntax-ns#" xmlns:svg="http://www.w3.org/2000/svg" xmlns="http://www.w3.org/2000/svg" xmlns:sodipodi="http://sodipodi.sourceforge.net/DTD/sodipodi-0.dtd" xmlns:inkscape="http://www.inkscape.org/namespaces/inkscape" version="1.1" x="0px" y="0px" viewBox="0 0 99.999999 99.999999" xml:space="preserve"><path d="m 50.000003,-5.705e-4 c -0.23496,0 -0.47007,0.0396 -0.6939,0.1190179 L 13.889313,12.618449 C 13.057282,12.913371 12.5,13.700774 12.5,14.583779 l 0,25.000005 c 0,32.352726 4.797317,44.177241 36.561963,60.192866 0.294921,0.14843 0.616551,0.22392 0.93804,0.22392 0.32148,0 0.642726,-0.0753 0.93765,-0.22392 C 82.702297,83.761024 87.5,71.93651 87.5,39.583784 l 0,-25.000005 c 0,-0.883005 -0.557668,-1.670213 -1.389697,-1.96533 L 50.693513,0.1184474 c -0.22383,-0.0793969 -0.45855,-0.1190179 -0.69351,-0.1190179 z m 0,4.2938245 33.3332,11.76567 0,23.52486 c 0,30.987494 -3.951165,41.017768 -33.333584,55.997846 C 20.617391,80.601553 16.666413,70.571278 16.666413,39.583784 l 0,-23.52486 33.33359,-11.76567 z m -0.242235,24.689865 c -1.204839,0 -2.180484,0.975015 -2.180484,2.1801 l 0,2.290342 c -3.6876,0.534444 -6.539535,3.686124 -6.539535,7.519914 0,4.206817 3.423204,7.630536 7.629774,7.630536 l 2.180481,0 c 1.800555,0 3.269963,1.466602 3.269963,3.269962 0,1.54521 -1.07958,2.843475 -2.520758,3.18336 0.01215,-0.808785 5.4e-5,-1.2795 0.02445,-1.77459 0.0609,-2.387865 -4.075956,-2.51805 -4.08936,-0.0366 0,1.927125 -0.02437,1.668203 0,1.898573 l -4.384611,-1.64604 c -1.128084,-0.423585 -2.179335,0.975015 -2.179335,2.180092 0,1.205085 1.05003,1.76103 2.179335,2.1801 l 4.439166,1.646431 0,2.1801 c 0,1.20495 0.974499,2.180099 2.179335,2.180099 1.204839,0 2.180865,-0.975149 2.180865,-2.180099 l 0,-2.290351 c 3.6876,-0.534435 6.539535,-3.686496 6.539535,-7.520294 0,-4.20681 -3.42321,-7.630155 -7.62978,-7.630155 l -2.180865,0 c -1.800546,0 -3.269571,-1.466724 -3.269571,-3.269954 0,-1.551181 1.086615,-2.853766 2.537535,-3.18756 -0.03652,0.653827 0.06105,2.301135 0.06105,2.832412 0.03652,2.288092 3.98457,2.126295 3.93219,-0.04387 -0.0243,-0.803242 0.0726,-2.19681 3.81e-4,-2.86674 l 4.125975,1.170344 c 1.15854,0.328928 2.179335,-0.975142 2.179335,-2.180099 0,-1.205078 -1.020795,-1.849838 -2.179335,-2.1801 l -4.124826,-1.175685 0,-2.180101 c 0,-1.205084 -0.976029,-2.1801 -2.180865,-2.1801 z"></path></svg>