<svg height='100px' width='100px'  fill="#B3B3B3" xmlns:x="http://ns.adobe.com/Extensibility/1.0/" xmlns:i="http://ns.adobe.com/AdobeIllustrator/10.0/" xmlns:graph="http://ns.adobe.com/Graphs/1.0/" xmlns="http://www.w3.org/2000/svg" xmlns:xlink="http://www.w3.org/1999/xlink" version="1.1" x="0px" y="0px" viewBox="0 0 100 100" style="enable-background:new 0 0 100 100;" xml:space="preserve"><g><g i:extraneous="self"><g><path d="M5273.1,2400.1v-2c0-2.8-5-4-9.7-4s-9.7,1.3-9.7,4v2c0,1.8,0.7,3.6,2,4.9l5,4.9c0.3,0.3,0.4,0.6,0.4,1v6.4     c0,0.4,0.2,0.7,0.6,0.8l2.9,0.9c0.5,0.1,1-0.2,1-0.8v-7.2c0-0.4,0.2-0.7,0.4-1l5.1-5C5272.4,2403.7,5273.1,2401.9,5273.1,2400.1z      M5263.4,2400c-4.8,0-7.4-1.3-7.5-1.8v0c0.1-0.5,2.7-1.8,7.5-1.8c4.8,0,7.3,1.3,7.5,1.8C5270.7,2398.7,5268.2,2400,5263.4,2400z"></path><path d="M5268.4,2410.3c-0.6,0-1,0.4-1,1c0,0.6,0.4,1,1,1h4.3c0.6,0,1-0.4,1-1c0-0.6-0.4-1-1-1H5268.4z"></path><path d="M5272.7,2413.7h-4.3c-0.6,0-1,0.4-1,1c0,0.6,0.4,1,1,1h4.3c0.6,0,1-0.4,1-1C5273.7,2414.1,5273.3,2413.7,5272.7,2413.7z"></path><path d="M5272.7,2417h-4.3c-0.6,0-1,0.4-1,1c0,0.6,0.4,1,1,1h4.3c0.6,0,1-0.4,1-1C5273.7,2417.5,5273.3,2417,5272.7,2417z"></path></g><g><path d="M44,37.2c1.5,0.6,3.3-0.2,3.9-1.6c0.3-0.7,0.3-1.5,0-2.3c-0.3-0.7-0.9-1.3-1.6-1.6l-12.9-5.3l4.5-11.1l6.9,2.8     c1.5,0.6,3.3-0.1,3.9-1.6c0.3-0.7,0.3-1.5,0-2.3c-0.3-0.7-0.9-1.3-1.6-1.6L27.8,4.7c-1.5-0.6-3.3,0.2-3.9,1.6     c-0.3,0.7-0.3,1.5,0,2.3c0.3,0.7,0.9,1.3,1.6,1.6l6.9,2.8l-4.5,11.1L15,18.8c-0.7-0.3-1.5-0.3-2.3,0l0,0     c-0.7,0.3-1.3,0.9-1.6,1.6c-0.3,0.7-0.3,1.5,0,2.3c0.3,0.7,0.9,1.3,1.6,1.6l3.3,1.3l-0.2,0.4l-13.1,32c-0.4,1-0.3,2.1,0.4,2.9     l6.2,8.5l-0.1,0.2l-5.3,13c-0.3,0.7-0.3,1.5,0,2.3c0.3,0.7,0.9,1.3,1.6,1.6c1.5,0.6,3.3-0.2,3.9-1.6l5.4-13.2L25.2,70     c1-0.2,1.9-0.9,2.3-1.8l13.3-32.4L44,37.2z M35.1,34L22.6,64.4L14,65.8l-5.2-7l1.4-3.3l5.5,2.3c1.5,0.6,3.3-0.1,3.9-1.6     c0.3-0.7,0.3-1.5,0-2.3c-0.3-0.7-0.9-1.3-1.6-1.6l-5.5-2.3l1.5-3.7l5.5,2.3c1.5,0.6,3.3-0.2,3.9-1.6c0.3-0.7,0.3-1.5,0-2.3     c-0.3-0.7-0.9-1.3-1.6-1.6l-5.5-2.3l1.5-3.7l5.5,2.3c1.5,0.6,3.3-0.2,3.9-1.6c0.3-0.7,0.3-1.5,0-2.3c-0.3-0.7-0.9-1.3-1.6-1.6     L20,31.6l1.5-3.7l13.8,5.6L35.1,34z"></path><path d="M39.3,80.2c4.4,6.6,13,8.9,20.2,5.5c0.3-0.2,0.7-0.3,1-0.5c-1.6-5.4-0.8-11.2,2-16.1L39.3,80.2z"></path><path d="M45.7,56.8c-7.2,3.4-10.7,11.7-8.4,19.2l28.6-13.7C61.5,55.7,52.9,53.4,45.7,56.8z"></path><path d="M73.4,93.8c7.1,3.5,15.8,1.3,20.3-5.2c4.5-6.6,3.6-15.5-2.2-20.9L73.4,93.8z"></path><path d="M72.8,65.4c-2.1,1.2-4,2.8-5.5,4.9c-4.5,6.5-3.6,15.4,2.2,20.8l18.1-26.1C82.8,62.7,77.3,62.9,72.8,65.4z"></path><path d="M94.5,33.5l-13.1-17c-4.9-6.3-13.9-7.5-20.2-2.6c-3,2.3-5,5.7-5.5,9.6c-0.5,3.8,0.5,7.6,2.9,10.6l13.1,17     c0.9,1.2,2,2.2,3.2,3.1c1.9,1.3,4,2.1,6.3,2.4c3.8,0.5,7.6-0.5,10.7-2.9c3-2.3,5-5.7,5.5-9.6C97.9,40.3,96.9,36.5,94.5,33.5z      M67.5,34.3c-0.7,0.5-1.6,0.5-2.3,0.1c-0.2-0.1-0.3-0.3-0.4-0.4L63,31.8c-1.7-2.2-2.4-4.9-2.1-7.6c0.4-2.7,1.7-5.2,3.9-6.9     c0.4-0.3,0.9-0.5,1.5-0.4c0.5,0.1,1,0.3,1.3,0.8c0.7,0.9,0.5,2.1-0.4,2.8c-1.3,1-2.2,2.5-2.4,4.2c-0.2,1.7,0.2,3.4,1.3,4.7     l1.7,2.2c0.3,0.4,0.5,0.9,0.4,1.5C68.1,33.5,67.9,34,67.5,34.3z M91.9,43.4c-0.3,2.4-1.5,4.5-3.4,5.9c-1.9,1.4-4.2,2.1-6.6,1.8     c-2.4-0.3-4.5-1.5-5.9-3.4l-6.5-8.4l14.1-10.9l6.5,8.4C91.6,38.7,92.2,41,91.9,43.4z"></path></g></g></g></svg>