<svg height='100px' width='100px'  fill="#B3B3B3" xmlns="http://www.w3.org/2000/svg" data-name="Layer 1" viewBox="0 0 128 128" x="0px" y="0px"><title>medicine and healthcare 01 final</title><path d="M81,15.8335a2.0001,2.0001,0,0,0,2-2V6.4165A6.42375,6.42375,0,0,0,76.5835,0h-8.167A6.42375,6.42375,0,0,0,62,6.4165v.05963A6.37643,6.37643,0,0,0,59.5835,6h-8.167A6.42375,6.42375,0,0,0,45,12.4165V18H44a5,5,0,0,0-5,5V35a5,5,0,0,0,5,5h6a5,5,0,0,0,5-5V23a5,5,0,0,0-5-5H49V12.4165A2.41917,2.41917,0,0,1,51.4165,10h8.167A2.41917,2.41917,0,0,1,62,12.4165V60h4V6.4165A2.41917,2.41917,0,0,1,68.4165,4h8.167A2.41917,2.41917,0,0,1,79,6.4165v7.417A2.0001,2.0001,0,0,0,81,15.8335ZM50,22a1.00115,1.00115,0,0,1,1,1V35a1.00115,1.00115,0,0,1-1,1H44a1.00115,1.00115,0,0,1-1-1V23a1.00115,1.00115,0,0,1,1-1Z"></path><path d="M124,72h-.75V70a6.0068,6.0068,0,0,0-6-6H40V58a4,4,0,0,0-4-4H18V48.5a7.0079,7.0079,0,0,0-7-7H7a7.0079,7.0079,0,0,0-7,7V86a4,4,0,0,0,4,4H16v24.2948a7,7,0,1,0,4,0V110h88v4.2948a7,7,0,1,0,4,0V90h12a4,4,0,0,0,4-4V76A4,4,0,0,0,124,72ZM18,58H36v6H18Zm0,10h99.25a2,2,0,0,1,2,2v2H18Zm3,53a3,3,0,1,1-3-3A3.00328,3.00328,0,0,1,21,121Zm-1-15V90h88v6H66a2,2,0,0,0,0,4h42v6Zm93,15a3,3,0,1,1-3-3A3.00328,3.00328,0,0,1,113,121Zm11-35H4V48.5a3,3,0,0,1,3-3h4a3,3,0,0,1,3,3V76H124Z"></path></svg>