<svg height='100px' width='100px'  fill="#B3B3B3" xmlns="http://www.w3.org/2000/svg" xmlns:xlink="http://www.w3.org/1999/xlink" version="1.1" x="0px" y="0px" viewBox="0 0 45 45" enable-background="new 0 0 45 45" xml:space="preserve"><path d="M40.412,40.186c-0.005-0.039-0.514-3.945-1.387-7.312c-0.559-2.155-4.072-3.72-7-4.67c-0.177-2.21-1.857-4.181-4.527-5.328  c0.064-0.076,0.127-0.153,0.189-0.231l0.138,0.009c0.222,0.041,0.426,0.059,0.613,0.059c0.8,0,1.288-0.334,1.57-0.649  c1.25-1.396,0.459-4.56,0.248-5.315c1.27-4.096,1.146-7.277-0.404-9.438c-1.91-2.663-5.426-3.06-7.352-3.06s-5.442,0.397-7.352,3.06  c-1.55,2.161-1.673,5.342-0.404,9.438c-0.212,0.755-1.002,3.92,0.248,5.315c0.282,0.315,0.77,0.649,1.57,0.649  c0.187,0,0.391-0.018,0.613-0.059l0.101-0.007c0.065,0.083,0.136,0.159,0.204,0.239c-2.657,1.148-4.327,3.114-4.504,5.318  c-2.928,0.95-6.441,2.515-7,4.67c-0.873,3.366-1.382,7.272-1.387,7.312L4.516,40.75h35.969L40.412,40.186z M30.99,27.886  c-1.265-0.371-2.318-0.612-2.793-0.713c-0.96-1.251-1.481-2.611-1.7-3.281c0.089-0.077,0.173-0.163,0.26-0.244  C29.107,24.555,30.662,26.121,30.99,27.886z M15.845,16.718c2.18-4.541,8.455-5.138,9.956-5.213  c0.418,0.948,1.729,3.788,3.251,5.845c-0.684,3.53-3.279,7.151-6.552,7.151C19.09,24.5,16.335,20.505,15.845,16.718z M22.5,25.5  c1.137,0,2.197-0.372,3.15-0.986c0.265,0.742,0.765,1.888,1.574,3.011c-1.044,0.953-3.734,1.389-4.681,1.477  c-1.027-0.088-3.723-0.524-4.767-1.478c0.8-1.112,1.3-2.249,1.566-2.991C20.293,25.136,21.354,25.5,22.5,25.5z M22.543,29.998  c0.312-0.026,2.323-0.22,3.947-0.886l-3.99,6.89l-3.992-6.892C20.14,29.778,22.172,29.972,22.543,29.998z M29.263,21.397  c-0.081,0.089-0.32,0.315-0.898,0.299c0.538-0.841,0.973-1.764,1.288-2.713C29.741,19.969,29.679,20.934,29.263,21.397z   M15.961,7.893C17.61,5.593,20.766,5.25,22.5,5.25s4.89,0.343,6.539,2.643c1.319,1.838,1.43,4.609,0.365,8.225  c-1.543-2.309-2.805-5.284-2.818-5.318l-0.129-0.306h-0.332c-0.331,0-7.638,0.064-10.724,4.947  C14.542,12.153,14.725,9.616,15.961,7.893z M15.737,21.397c-0.412-0.459-0.478-1.411-0.391-2.387  c0.309,0.944,0.739,1.855,1.265,2.688C16.05,21.708,15.817,21.486,15.737,21.397z M18.215,23.66  c0.093,0.086,0.186,0.172,0.281,0.253c-0.223,0.676-0.743,2.021-1.693,3.26c-0.476,0.102-1.528,0.343-2.793,0.713  C14.337,26.127,15.882,24.568,18.215,23.66z M13.438,34.167c0.988,0,1.792,0.804,1.792,1.792s-0.804,1.792-1.792,1.792  s-1.792-0.804-1.792-1.792S12.45,34.167,13.438,34.167z M5.659,39.75c0.173-1.193,0.623-4.07,1.285-6.625  c0.407-1.57,3.263-2.919,5.994-3.844v3.936c-1.301,0.237-2.292,1.373-2.292,2.741c0,1.539,1.252,2.792,2.792,2.792  s2.792-1.252,2.792-2.792c0-1.368-0.991-2.504-2.292-2.741V28.96c1.101-0.338,2.118-0.598,2.885-0.767l5.678,9.804l5.678-9.804  c0.767,0.169,1.784,0.429,2.885,0.767v1.549c-0.754,0.072-1.764,0.489-2.309,1.784c-0.52,1.234-1.397,4.421-0.617,5.853  c0.222,0.408,0.565,0.663,0.991,0.738c0.27,0.049,0.532-0.133,0.579-0.405c0.048-0.272-0.133-0.531-0.405-0.579  c-0.088-0.016-0.191-0.055-0.287-0.232c-0.503-0.923,0.046-3.527,0.661-4.987c0.559-1.328,1.681-1.197,1.802-1.177l0.085,0.013  l0.081-0.012c0.125-0.02,1.248-0.151,1.806,1.176c0.615,1.46,1.164,4.063,0.661,4.987c-0.096,0.177-0.199,0.216-0.287,0.232  c-0.272,0.048-0.454,0.307-0.405,0.579c0.042,0.243,0.253,0.413,0.492,0.413c0.029,0,0.058-0.002,0.087-0.008  c0.426-0.075,0.769-0.33,0.991-0.738c0.78-1.432-0.098-4.619-0.617-5.853c-0.544-1.293-1.556-1.711-2.309-1.784v-1.228  c2.731,0.924,5.587,2.274,5.994,3.844c0.662,2.554,1.112,5.432,1.285,6.625H5.659z"></path></svg>