<svg height='100px' width='100px'  fill="#B30000" xmlns="http://www.w3.org/2000/svg" xmlns:xlink="http://www.w3.org/1999/xlink" version="1.1" x="0px" y="0px" viewBox="0 0 100 100" style="enable-background:new 0 0 100 100;" xml:space="preserve"><g><g><g><g><g><path d="M92.5,100L73.8,77.5c-2.4-2.8-2.9-6.6-1.3-10c0.9-2,2.5-3.6,4.4-4.5c0.1,0,0.1-0.1,0.2-0.1       c1.2-0.5,2.5-0.8,3.9-0.8c0,0,0,0,0,0c3.7,0,6.9,2,8.5,5.4c1.6,3.3,1.1,7.1-1.2,10l-1.4,1.7L99.3,94L92.5,100z M75.9,66.4       c-0.6,0.6-1.1,1.3-1.5,2.1c-1.2,2.5-0.8,5.5,1,7.6l17.3,20.7l3.5-3.1L84.6,79.9c0,0,0,0,0,0l-6.4-7.5       C76.7,70.6,75.9,68.5,75.9,66.4z M78.3,64.8c-0.5,2.2,0,4.4,1.5,6.1l5.5,6.5l1.1-1.4c1.8-2.2,2.1-5.1,0.9-7.6       c-1.2-2.5-3.7-4.1-6.5-4.1c0,0,0,0,0,0C80,64.3,79.1,64.5,78.3,64.8z"></path></g></g><g><path d="M49.6,97.9c-0.1,0-0.2,0-0.3,0l-0.5,0c-26.5-0.5-48-22.4-48-48.9c0-13.1,5.1-25.4,14.3-34.7      C24.3,5.1,36.6,0,49.6,0c0,0,0.1,0,0.1,0C76.1,0,98,21.6,98.5,47.9c0.1,6.9-1.2,13.7-3.8,20c-0.2,0.6-0.9,0.8-1.5,0.6      c-0.6-0.2-0.8-0.9-0.6-1.5c2.6-6.1,3.8-12.5,3.7-19.1C95.8,22.8,74.9,2.3,49.7,2.2c0,0-0.1,0-0.1,0c-12.5,0-24.2,4.9-33,13.7      C7.8,24.7,2.9,36.5,2.9,49c0,25.3,20.6,46.2,45.8,46.7l0.5,0c0.1,0,0.2,0,0.3,0c10,0,19.9-3.7,27.9-10.4c0.7-0.6,1.4-1.2,2-1.8      c0.4-0.4,1.1-0.4,1.6,0.1c0.4,0.4,0.4,1.1-0.1,1.6c-0.7,0.6-1.4,1.3-2.1,1.9C70.5,94,60.1,97.9,49.6,97.9z"></path></g></g></g><g><path d="M43.5,84.3c-0.3,0-0.6-0.1-0.8-0.3c-0.4-0.4-0.4-1.1,0-1.6l7.8-7.8H39.4l13-13c0.4-0.4,1.1-0.4,1.6,0    c0.4,0.4,0.4,1.1,0,1.6l-9.2,9.2h11.1L44.3,83.9C44.1,84.2,43.8,84.3,43.5,84.3z"></path></g><g><g><path d="M85.5,59.4c-0.6,0-1.1-0.5-1.1-1.1c-0.3-7.1-5.6-15.9-5.7-16c-0.1-0.1-0.1-0.2-0.1-0.3     c-4.3-15-9.5-20.4-12.2-22.3c-0.8-0.6-1.9-0.8-2.9-0.6c-1,0.2-1.8,0.8-2.4,1.6C61.1,20.9,61,21,61,21.1c-1.2,2-3.4,2.9-5.6,2.3     c-2.2-0.6-3.7-2.4-3.8-4.7l0-0.2v-16c0-0.6,0.5-1.1,1.1-1.1s1.1,0.5,1.1,1.1l0,16.2c0,1.5,1.1,2.4,2.1,2.6c1,0.3,2.4,0.1,3.2-1.3     c0.1-0.1,0.1-0.2,0.2-0.4c0.8-1.3,2.2-2.3,3.8-2.6c1.6-0.3,3.3,0,4.6,0.9c3.6,2.5,8.8,8.5,13,23.3c0.7,1.2,5.6,9.7,5.9,17     C86.6,58.9,86.2,59.4,85.5,59.4C85.5,59.4,85.5,59.4,85.5,59.4z"></path></g><g><path d="M22.1,68.5c-0.1,0-0.1,0-0.2,0c-1.4,0-2.8-0.3-4-0.7c-2.4-1-4-2.7-4.8-5.1c-2.5-7.7,4.5-19.9,5.4-21.4     c4.2-14.8,9.4-20.9,13-23.3c1.3-0.9,3-1.2,4.6-0.9c1.6,0.3,2.9,1.3,3.8,2.6c0.1,0.1,0.2,0.2,0.2,0.4c0.8,1.4,2.1,1.6,3.1,1.3     c1-0.3,2.1-1.1,2.1-2.7l0-0.1v-16c0-0.6,0.5-1.1,1.1-1.1s1.1,0.5,1.1,1.1l0,16.2c0,2.3-1.6,4.2-3.8,4.8c-2.3,0.6-4.5-0.4-5.6-2.4     c-0.1-0.1-0.1-0.2-0.2-0.3c-0.5-0.8-1.4-1.4-2.4-1.6c-1-0.2-2.1,0-2.9,0.6C30.1,21.6,24.9,27,20.6,42c0,0.1-0.1,0.2-0.1,0.3     C20.4,42.4,13,55,15.3,62c0.6,1.8,1.7,3,3.5,3.7c0.9,0.4,2,0.6,3.1,0.6c2.5,0,5.1-0.2,10.3-0.7c3.6-0.4,6.3-3.9,7.1-7.1     c1.3-5.7,3.1-14.2,2.7-22c-0.1-2.8,1.1-5.5,3.3-7.2c2.5-2,6.1-2,8.6,0c3.1,2.4,3.2,4.5,3.3,8.5c0.1,3.9,0.2,9.8,2.8,20.7     c0.8,3.3,3.4,6.8,7.1,7.1c0.6,0.1,1,0.6,1,1.2c-0.1,0.6-0.6,1-1.2,1c-4.7-0.5-8.1-4.8-9-8.8c-2.6-11.2-2.8-17.4-2.9-21.2     c-0.1-3.9-0.1-5-2.4-6.8c-1.7-1.3-4.1-1.3-5.9,0c-1.6,1.3-2.6,3.3-2.5,5.4c0.3,8.1-1.4,16.8-2.8,22.6c-0.9,4-4.3,8.3-9,8.8     C27.3,68.4,24.6,68.5,22.1,68.5z"></path></g><g><path d="M74.7,44c-2.8,0-6.3-1-9.6-4.8c-0.4-0.5-0.4-1.2,0.1-1.6c0.5-0.4,1.2-0.4,1.6,0.1     c5.8,6.7,12.1,3.2,12.3,3c0.5-0.3,1.2-0.1,1.5,0.4c0.3,0.5,0.1,1.2-0.4,1.5C80.2,42.7,77.9,44,74.7,44z"></path></g><g><path d="M24.5,44c-3.2,0-5.5-1.3-5.5-1.3c-0.5-0.3-0.7-1-0.4-1.5c0.3-0.5,1-0.7,1.5-0.4c0.3,0.2,6.6,3.6,12.3-3     c0.4-0.5,1.1-0.5,1.6-0.1c0.5,0.4,0.5,1.1,0.1,1.6C30.8,43,27.3,44,24.5,44z"></path></g><g><path d="M21.3,55.5c-4,0-6.9-1.6-7-1.7c-0.5-0.3-0.7-1-0.4-1.5c0.3-0.5,1-0.7,1.5-0.4c0.4,0.2,8.8,4.9,16.5-4     c0.4-0.5,1.1-0.5,1.6-0.1c0.5,0.4,0.5,1.1,0.1,1.6C29.4,54.2,24.9,55.5,21.3,55.5z"></path></g><g><path d="M78,55.5c-3.6,0-8.1-1.3-12.3-6.1c-0.4-0.5-0.4-1.2,0.1-1.6c0.5-0.4,1.2-0.4,1.6,0.1     c7.8,8.9,16.4,4.1,16.5,4c0.5-0.3,1.2-0.1,1.5,0.4c0.3,0.5,0.1,1.2-0.4,1.5C84.9,53.9,82,55.5,78,55.5z"></path></g></g></g></svg>