<svg height='100px' width='100px'  fill="#B30000" xmlns="http://www.w3.org/2000/svg" xmlns:xlink="http://www.w3.org/1999/xlink" version="1.1" x="0px" y="0px" viewBox="0 0 512 512" style="enable-background:new 0 0 512 512;" xml:space="preserve"><g><g><g><path d="M470.516,361.852c4.465,0,8.629,1.889,11.613,4.862l0.096,0.098c2.867,2.972,4.648,7.04,4.648,11.506     c0,4.464-1.878,8.532-4.744,11.602l-0.214,0.097c-2.964,2.877-6.935,4.668-11.399,4.668c-4.563,0-8.63-1.791-11.603-4.765     l-0.202-0.193c-2.868-2.982-4.649-7.05-4.649-11.408c0-4.562,1.878-8.63,4.852-11.604l0.106-0.203     C461.983,363.634,466.051,361.852,470.516,361.852z M470.516,385.058c1.889,0,3.574-0.688,4.757-1.985     c1.297-1.182,1.994-2.876,1.994-4.755c0-1.889-0.697-3.671-1.994-4.862c-1.183-1.191-2.868-1.986-4.757-1.986     s-3.573,0.795-4.853,1.986c-1.199,1.191-1.995,2.974-1.995,4.862c0,1.879,0.796,3.573,1.995,4.755     C466.942,384.37,468.627,385.058,470.516,385.058z"></path><path d="M398.121,63.534l-17.452,10.121c-2.383,1.385-5.259,0.591-6.646-1.686c-1.297-2.285-0.502-5.259,1.783-6.547     l10.305-5.956l-10.305-5.947c-2.285-1.287-3.08-4.261-1.783-6.546c1.387-2.276,4.263-3.071,6.646-1.782l17.452,10.111     c2.285,1.287,3.079,4.271,1.685,6.546C399.409,62.644,398.818,63.137,398.121,63.534z"></path><path d="M396.532,186.708c0,2.684-9.521,35.999-39.768,48.997l-2.575,1.084l-1.588-2.275     c-5.56-8.232-17.763-22.015-37.386-22.015v-6.644c21.414,0,35.196,14.275,41.356,22.508     c26.275-12.793,33.22-41.945,33.315-42.246l2.984,0.591H396.532z"></path><path d="M394.558,310.58c-2.887,2.779-17.356,16.561-38.092,20.93c1.287,9.713,0.299,27.166-20.523,37.78l-0.309,0.203     c-1.085,0.397-2.374,0.784-4.067,0.784v-6.74c0.406,0,0.696,0,1.394-0.299c18.653-9.618,18.247-25.288,16.271-33.715     l-0.795-3.573l3.563-0.494c20.93-3.178,36.106-17.946,37.695-19.642l2.479,2.285L394.558,310.58z"></path><path d="M325.327,489.588c2.578,0,4.766,2.18,4.766,4.862c0,2.575-2.188,4.755-4.766,4.755H300.34     c-2.586,0-4.765-2.18-4.765-4.755c0-2.683,2.179-4.862,4.765-4.862H325.327z"></path><path d="M262.942,255.937c54.947-13.685,72.11,24.793,73.892,29.26l-2.479,0.987l-3.681,1.781l-0.097-0.291     c-1.589-3.873-16.561-37.586-66.047-25.19L262.942,255.937z"></path><path d="M310.045,153.392c-4.959,3.371-10.604,6.344-17.249,8.522l-0.203,0.098c-0.698,0.203-1.588,0.503-2.771,0.503v-6.75     c0.194,0,0.494-0.097,0.795-0.193c6.74-2.286,12.493-5.356,17.355-9.026c-3.468-7.438-10.016-12.794-15.282-15.37l2.982-6.054     c5.946,2.974,13.094,8.833,17.452,16.861c13.095-12.793,17.064-29.452,17.064-38.972h6.742c0,11.108-4.959,31.137-21.134,45.713     c2.479,8.532,1.395,17.559-3.272,26.876l-6.044-3.07C309.852,165.886,311.053,159.436,310.045,153.392z"></path><path d="M308.67,502.479c2.576,0,4.755,2.083,4.755,4.765c0,2.673-2.179,4.757-4.755,4.757h-53.36     c-2.682,0-4.86-2.084-4.86-4.757c0-2.682,2.179-4.765,4.86-4.765H308.67z"></path><path d="M290.715,59.069c13.19,0.301,26.875,7.245,37.586,19.041l-4.958,4.562C313.822,72.26,301.919,66.11,290.52,65.82     c-9.22-0.301-17.559,3.273-24.798,10.411l-4.76-4.765C269.388,63.04,279.711,58.876,290.715,59.069z"></path><path d="M281.396,400.632c5.056,15.176,16.561,26.972,18.344,28.764l-2.285,2.479l-2.48,2.275     c-3.272-3.272-15.67-16.367-20.628-33.326c-3.273-0.097-6.935-0.493-10.804-1.181l1.186-6.653c2.974,0.6,5.647,0.9,8.125,1.094     c-0.89-5.851-0.792-12,0.901-18.247l6.538,1.783c-1.578,5.559-1.473,11.107-0.582,16.366     c18.731-1.588,25.481-14.478,25.782-15.079l5.946,2.983C311.148,382.578,303.014,398.249,281.396,400.632z"></path><path d="M230.217,392.99l1.288,6.653c-4.363,0.785-8.63,1.287-12.493,1.287c-2.48,0-4.762-0.203-6.945-0.502     c-5.152,16.464-17.055,29.258-20.329,32.531l-4.861-4.659l0.102-0.096c2.974-2.984,13.786-14.586,18.445-29.163     c-15.075-4.562-21.026-15.573-21.82-17.151l6.053-2.983c0.194,0.504,4.959,9.628,17.452,13.491     c0.892-5.055,0.794-10.508-0.692-15.97l6.543-1.782c1.786,6.547,1.786,13.094,0.696,19.244c1.686,0.193,3.469,0.291,5.357,0.291     C222.381,394.182,226.25,393.783,230.217,392.99z"></path><path d="M230.313,262.483c-49.384-12.396-64.261,21.017-65.752,24.688c0.102-0.195,0.102-0.398,0.102-0.592h-6.746     c0-1.986,4.959-13.384,16.067-22.014c10.219-8.039,28.562-15.972,57.917-8.63L230.313,262.483z"></path><path d="M204.333,67.408c-10.813,0.193-22.416,6.043-32.925,16.455c-0.498,0.396-0.697,0.6-0.896,0.794l-2.082-2.673     l-2.184-2.479c0.102-0.098,0.203-0.301,0.396-0.397c11.807-11.602,25.094-18.149,37.394-18.45     c10.707-0.396,20.523,3.769,29.254,12.397l-4.761,4.766C221.19,70.575,213.059,67.012,204.333,67.408z"></path><path d="M175.37,178.68c-4.857-9.821-5.356-18.75-3.269-26.382c-19.637-14.683-25.39-37.19-25.39-49.287h6.74     c0,10.411,4.863,29.646,21.128,42.74c4.165-8.233,11.104-14.276,17.651-17.55l2.973,6.044     c-4.958,2.479-11.602,7.737-15.069,15.37c3.768,2.383,7.933,4.367,12.692,5.956l-2.185,6.343     c-4.658-1.481-8.822-3.467-12.59-5.646c-0.993,5.646-0.3,12.097,3.37,19.331L175.37,178.68z"></path><path d="M146.911,15.535c0.692,2.577-0.896,5.152-3.375,5.85l-8.624,2.286c-2.48,0.688-5.157-0.794-5.854-3.371     c-0.693-2.585,0.896-5.259,3.477-5.956l8.426-2.179C143.535,11.468,146.218,12.959,146.911,15.535z"></path><path d="M123.507,30.315c-0.697-2.577,0.794-5.26,3.371-5.851c2.576-0.697,5.157,0.795,5.849,3.37l2.185,8.33     c0.692,2.576-0.795,5.151-3.375,5.849c-2.479,0.698-5.152-0.793-5.85-3.37L123.507,30.315z"></path><path d="M128.364,11.564c0.693,2.586-0.789,5.259-3.371,5.859c-2.581,0.688-5.157-0.794-5.854-3.38l-2.179-8.029     c-0.697-2.479,0.891-5.161,3.371-5.85c2.576-0.697,5.259,0.892,5.85,3.371L128.364,11.564z"></path><path d="M117.158,18.509c2.581-0.688,5.157,0.795,5.85,3.37c0.692,2.586-0.891,5.162-3.371,5.859l-8.731,2.373     c-2.576,0.697-5.152-0.891-5.85-3.37c-0.693-2.576,0.794-5.153,3.371-5.851L117.158,18.509z"></path><path d="M104.959,186.021c0.097,0.291,7.24,29.55,33.322,42.343c6.939-9.326,20.43-22.508,41.359-22.508v6.644     c-19.641,0-31.839,13.782-37.393,22.015l-1.588,2.275l-2.577-1.084c-31.738-13.686-39.766-48.696-39.766-48.997h3.37     L104.959,186.021z"></path><path d="M124.397,312.168l3.671,0.494l-0.795,3.573c-1.985,8.523-2.382,24.397,16.363,33.82l-3.075,6.044     c-20.823-10.615-21.918-28.163-20.527-37.889c-20.828-4.358-35.404-18.043-38.28-20.919l4.755-4.766     C88.195,294.212,103.468,308.992,124.397,312.168z"></path><path d="M71.043,409.755c-0.596-0.592-1.39-0.892-2.286-0.892c-0.789,0-1.583,0.3-2.179,0.892     c-0.596,0.493-0.891,1.287-0.891,2.179c0,0.794,0.295,1.588,0.891,2.188c0.596,0.592,1.39,0.893,2.179,0.893     c0.896,0,1.69-0.301,2.286-0.893c0.494-0.6,0.892-1.394,0.892-2.188C71.935,411.042,71.537,410.248,71.043,409.755z      M81.454,411.934c0,3.477-1.384,6.644-3.67,8.93c-2.275,2.382-5.453,3.768-9.026,3.768c-3.467,0-6.644-1.386-8.92-3.768     c-2.286-2.286-3.772-5.453-3.772-8.93c0-3.468,1.487-6.74,3.772-9.027c2.276-2.274,5.453-3.661,8.92-3.661     c3.574,0,6.751,1.387,9.026,3.661C80.07,405.193,81.454,408.466,81.454,411.934z"></path><polygon points="55.174,170.447 45.949,173.227 43.373,164.597 52.593,161.818    "></polygon><path d="M286.356,461.724c14.469,0,25.277-3.573,35.291-11.709l1.008-0.784l1.277,0.098c0.988,0.096,1.889,0.096,2.888,0.096     c28.357,0,57.219-25.384,68.627-60.298l0.581-1.686l1.899-0.494c21.81-5.453,38.564-22.121,44.918-44.726     c5.355-19.244,1.879-38.778-9.026-49.694l-2.973-3.069l3.669-2.18c7.245-4.271,10.81-23.108,8.524-44.832     c-2.576-24.097-12.688-54.643-32.92-61.286l-3.272-1.095l1.094-3.177c6.838-20.426-2.383-44.028-13.384-59.398     c-10.423-14.382-23.419-23.806-33.239-23.806h-2.479l-0.679-2.276c-7.545-22.914-48.502-47.505-71.804-47.505     c-33.729,0-34.126,20.727-34.126,21.617v337.785C252.23,440.998,252.23,461.724,286.356,461.724z M136.397,93.684     c-9.82,0-22.808,9.424-33.224,23.806c-11.007,15.37-20.329,38.973-13.39,59.398l1.095,3.177l-3.273,1.095     c-18.944,6.246-30.247,35.302-32.929,61.286c-2.277,21.821,1.288,40.562,8.532,44.832l3.671,2.18l-2.979,3.069     c-10.91,11.013-14.378,30.45-9.021,49.792c6.247,22.507,23.108,39.175,44.923,44.628l1.884,0.494l0.494,1.686     c11.505,34.914,40.367,60.298,68.729,60.298c0.992,0,1.884,0,2.877-0.096l1.287-0.098l0.993,0.784     c9.917,8.136,20.828,11.709,35.204,11.709c34.218,0,34.218-20.726,34.218-58.419V65.52c0-0.891-0.696-21.617-34.218-21.617     c-23.204,0-64.162,24.591-71.697,47.505l-0.697,2.276H136.397z M97.721,113.615c11.007-15.369,24.692-25.19,36.294-26.479     c4.562-11.399,15.971-23.506,31.641-33.617c15.864-10.217,32.925-16.261,45.616-16.261c23.206,0,33.225,9.124,37.589,16.958     c4.367-7.834,14.382-16.958,37.496-16.958c25.373,0,67.136,24.29,77.344,49.878c11.603,1.288,25.297,11.109,36.298,26.479     c11.41,15.874,21.135,40.271,15.284,62.284c21.21,9.521,31.825,40.958,34.401,65.85c1.898,17.462,0.504,39.572-8.62,48.802     c10.615,12.988,13.889,33.413,8.233,53.549c-6.741,24.3-24.697,42.449-48,48.891c-6.354,18.353-17.355,34.119-30.546,45.326     c-13.191,11.204-28.571,17.849-43.931,17.849c-0.698,0-1.298-0.097-1.995-0.097c-10.906,8.629-22.906,12.396-38.469,12.396     c-18.849,0-30.253-6.054-35.907-18.944c-0.597-1.384-1.096-2.876-1.589-4.357c-0.494,1.481-0.988,2.974-1.589,4.357     c-5.646,12.891-17.055,18.944-36,18.944c-15.466,0-27.466-3.768-38.478-12.396c-31.239,1.095-63.369-25.589-76.367-63.078     c-23.302-6.441-41.253-24.591-47.999-48.891c-5.651-20.028-2.382-40.561,8.232-53.549c-9.22-9.229-10.513-31.34-8.726-48.802     c2.678-24.892,13.191-56.329,34.513-65.85C76.592,153.886,86.316,129.489,97.721,113.615z"></path><polygon points="45.949,173.227 48.525,181.847 39.402,184.528 36.826,175.997 36.826,175.899    "></polygon><polygon points="31.668,158.748 40.893,155.968 43.373,164.597 34.25,167.367    "></polygon><polygon points="25.126,170.05 34.25,167.367 36.826,175.899 36.826,175.997 27.702,178.68    "></polygon></g></g></g></svg>