<svg height='100px' width='100px'  fill="#B30000" xmlns:dc="http://purl.org/dc/elements/1.1/" xmlns:cc="http://creativecommons.org/ns#" xmlns:rdf="http://www.w3.org/1999/02/22-rdf-syntax-ns#" xmlns:svg="http://www.w3.org/2000/svg" xmlns="http://www.w3.org/2000/svg" xmlns:sodipodi="http://sodipodi.sourceforge.net/DTD/sodipodi-0.dtd" xmlns:inkscape="http://www.inkscape.org/namespaces/inkscape" viewBox="0 0 12.7 12.7" version="1.1" x="0px" y="0px"><g transform="translate(0,-284.29998)"><path style="" d="m 4.306365,285.02172 a 1.8196478,1.8196478 0 0 0 -1.7587835,1.81083 v 0.10452 H 2.2385333 a 0.35835566,0.35835566 0 0 0 -0.3584652,0.35806 v 0.91367 a 1.4389264,1.4389264 0 0 0 -1.35090136,1.43626 v 6.27563 a 0.35835566,0.35835566 0 0 0 0.35872118,0.35857 H 4.3834349 a 0.35835566,0.35835566 0 0 0 0.3587213,-0.35857 v -6.27563 A 1.4389264,1.4389264 0 0 0 3.3907426,288.2088 v -0.91367 a 0.35835566,0.35835566 0 0 0 -0.357953,-0.35806 H 2.7237414 v -0.10452 a 1.6433065,1.6433065 0 0 1 3.2866131,0 v 7.43985 a 1.8196478,1.8196478 0 0 0 3.6391892,0 v -1.1092 h 0.7520093 v -0.56811 a 6.8294143,6.8294143 0 0 0 0.845721,-0.15953 0.5429469,0.5429469 0 0 0 0.408394,-0.52609 v -0.93367 h 0.382278 a 0.13254622,0.13254622 0 0 0 0.132887,-0.13252 v -0.93517 a 0.13254622,0.13254622 0 0 0 -0.132887,-0.13253 h -0.382278 v -0.46708 a 0.5429469,0.5429469 0 0 0 -0.138009,-0.36156 l -0.936618,-1.0492 a 1.3674905,1.3674905 0 0 0 -2.0399227,0 l -0.9371302,1.0492 a 0.5429469,0.5429469 0 0 0 -0.1380092,0.36156 v 0.46708 H 7.0839576 a 0.13254622,0.13254622 0 0 0 -0.1331442,0.13253 v 0.93517 a 0.13254622,0.13254622 0 0 0 0.1331442,0.13252 h 0.3820213 v 0.93367 a 0.5429469,0.5429469 0 0 0 0.4091624,0.52609 6.8294143,6.8294143 0 0 0 0.8462337,0.15953 v 0.56811 h 0.7509845 v 1.1092 a 1.6430722,1.6430722 0 0 1 -3.2855889,0 v -7.43985 A 1.8196478,1.8196478 0 0 0 4.306365,285.02172 Z m -2.0678317,2.09138 h 0.7942563 a 0.18192982,0.18192982 0 0 1 0.182049,0.18203 v 0.91117 H 2.0569963 v -0.91117 a 0.18192982,0.18192982 0 0 1 0.181537,-0.18203 z m 7.2727453,0.50559 a 1.1910648,1.1910648 0 0 1 0.9386664,0.39657 l 0.936874,1.04919 a 0.36652106,0.36652106 0 0 1 0.09397,0.24405 v 2.60097 a 0.36652106,0.36652106 0 0 1 -0.27653,0.35506 v 0 a 6.6529885,6.6529885 0 0 1 -0.801681,0.15303 v -0.76264 a 0.84008885,0.84008885 0 0 0 -1.6801777,0 v 0.76264 a 6.6529885,6.6529885 0 0 1 -0.8027058,-0.15303 0.36652106,0.36652106 0 0 1 -0.2765303,-0.35506 v -2.60097 a 0.36652106,0.36652106 0 0 1 0.093969,-0.24405 l 0.9366182,-1.04919 a 1.1910648,1.1910648 0 0 1 0.8385523,-0.39657 z m -7.5428744,0.76413 h 1.3342584 a 1.2625006,1.2625006 0 0 1 1.2628215,1.26224 v 0.51309 H 0.70635094 v -0.51309 a 1.2625006,1.2625006 0 0 1 1.26205326,-1.26224 z m 5.1585692,1.56929 h 0.3390055 v 0.84716 H 7.1269734 Z m 4.5286946,0 h 0.339262 v 0.84716 H 11.655668 Z M 0.70635094,290.33469 H 4.5654841 v 3.95222 H 0.70635094 Z m 8.82745966,0.66462 a 0.66361786,0.66361786 0 0 1 0.6908144,0.65561 v 1.33175 H 8.897279 v -1.33175 a 0.66361786,0.66361786 0 0 1 0.6365316,-0.65561 z m -8.82745966,3.46412 H 4.5654841 v 1.45726 a 0.18192983,0.18192983 0 0 1 -0.1820492,0.18204 H 0.88788792 a 0.18192983,0.18192983 0 0 1 -0.18153698,-0.18204 z" fill="#B30000" stroke="none"></path></g></svg>